<svg width="14" height="14" viewBox="0 0 14 14" fill="none" xmlns="http://www.w3.org/2000/svg">
<g clip-path="url(#clip_profile_setup_tip)">
<path d="M5.79551 9.04058C5.74345 8.83877 5.63826 8.6546 5.49088 8.50723C5.34351 8.35985 5.15934 8.25466 4.95753 8.2026L1.37993 7.28007C1.31889 7.26274 1.26517 7.22598 1.22692 7.17536C1.18867 7.12474 1.16797 7.06302 1.16797 6.99957C1.16797 6.93612 1.18867 6.87441 1.22692 6.82379C1.26517 6.77317 1.31889 6.7364 1.37993 6.71908L4.95753 5.79596C5.15927 5.74395 5.34339 5.63884 5.49076 5.49158C5.63812 5.34432 5.74335 5.16026 5.79551 4.95856L6.71804 1.38096C6.73519 1.31968 6.77192 1.2657 6.82261 1.22724C6.87331 1.18879 6.9352 1.16797 6.99883 1.16797C7.06246 1.16797 7.12435 1.18879 7.17504 1.22724C7.22574 1.2657 7.26247 1.31968 7.27961 1.38096L8.20157 4.95856C8.25363 5.16037 8.35882 5.34454 8.50619 5.49192C8.65357 5.63929 8.83774 5.74448 9.03955 5.79654L12.6171 6.7185C12.6787 6.73547 12.7329 6.77215 12.7716 6.82292C12.8103 6.8737 12.8312 6.93575 12.8312 6.99957C12.8312 7.06339 12.8103 7.12545 12.7716 7.17622C12.7329 7.22699 12.6787 7.26368 12.6171 7.28065L9.03955 8.2026C8.83774 8.25466 8.65357 8.35985 8.50619 8.50723C8.35882 8.6546 8.25363 8.83877 8.20157 9.04058L7.27903 12.6182C7.26188 12.6795 7.22516 12.7334 7.17446 12.7719C7.12376 12.8104 7.06188 12.8312 6.99825 12.8312C6.93461 12.8312 6.87273 12.8104 6.82203 12.7719C6.77134 12.7334 6.73461 12.6795 6.71746 12.6182L5.79551 9.04058Z" stroke="#EA580C" stroke-width="1.16629" stroke-linecap="round" stroke-linejoin="round"/>
<path d="M11.6621 1.75V4.08258" stroke="#EA580C" stroke-width="1.16629" stroke-linecap="round" stroke-linejoin="round"/>
<path d="M12.8287 2.91406H10.4961" stroke="#EA580C" stroke-width="1.16629" stroke-linecap="round" stroke-linejoin="round"/>
<path d="M2.33203 9.91406V11.0804" stroke="#EA580C" stroke-width="1.16629" stroke-linecap="round" stroke-linejoin="round"/>
<path d="M2.91629 10.4961H1.75" stroke="#EA580C" stroke-width="1.16629" stroke-linecap="round" stroke-linejoin="round"/>
</g>
<defs>
<clipPath id="clip_profile_setup_tip">
<rect width="13.9955" height="13.9955" fill="white"/>
</clipPath>
</defs>
</svg>
